<svg version="1.1" xmlns="http://www.w3.org/2000/svg" xmlns:xlink="http://www.w3.org/1999/xlink" width="722.40625" height="517"><defs/><g><g transform="translate(-142,-366) scale(1,1)"><rect fill="#C0C0C0" stroke="none" x="159" y="503" width="176.26708984375" height="117" opacity="0.2"/></g><g transform="translate(-142,-366) scale(1,1)"><rect fill="#ffffff" stroke="none" x="152" y="496" width="176.26708984375" height="117"/></g><g transform="translate(-142,-366) scale(1,1)"><path fill="none" stroke="#000000" d="M 152 496 L 328.26708984375 496 L 328.26708984375 613 L 152 613 L 152 496 Z Z" stroke-miterlimit="10"/></g><g transform="translate(-142,-366) scale(1,1)"><path fill="none" stroke="#000000" d="M 152 521 L 328.26708984375 521" stroke-miterlimit="10"/></g><g transform="translate(-142,-366) scale(1,1)"><path fill="none" stroke="#000000" d="M 152 604 L 328.26708984375 604" stroke-miterlimit="10"/></g><g transform="translate(-142,-366) scale(1,1)"><g><path fill="none" stroke="none"/><text fill="#000000" stroke="none" font-family="Arial" font-size="13px" font-style="normal" font-weight="bold" text-decoration="none" x="216.2822265625" y="515.5">Etudiant</text></g></g><g transform="translate(-142,-366) scale(1,1)"><g><path fill="none" stroke="none"/><text fill="#000000" stroke="none" font-family="Arial" font-size="13px" font-style="normal" font-weight="normal" text-decoration="none" x="157" y="538.5">+numCarteEtu: long</text></g></g><g transform="translate(-142,-366) scale(1,1)"><g><path fill="none" stroke="none"/><text fill="#000000" stroke="none" font-family="Arial" font-size="13px" font-style="normal" font-weight="normal" text-decoration="none" x="157" y="553.5">+nom: String</text></g></g><g transform="translate(-142,-366) scale(1,1)"><g><path fill="none" stroke="none"/><text fill="#000000" stroke="none" font-family="Arial" font-size="13px" font-style="normal" font-weight="normal" text-decoration="none" x="157" y="568.5">+prenom: String</text></g></g><g transform="translate(-142,-366) scale(1,1)"><g><path fill="none" stroke="none"/><text fill="#000000" stroke="none" font-family="Arial" font-size="13px" font-style="normal" font-weight="normal" text-decoration="none" x="157" y="583.5">+admission: EnumAdmission</text></g></g><g transform="translate(-142,-366) scale(1,1)"><g><path fill="none" stroke="none"/><text fill="#000000" stroke="none" font-family="Arial" font-size="13px" font-style="normal" font-weight="normal" text-decoration="none" x="157" y="598.5">+fillière: EnumFilière</text></g></g><g transform="translate(-142,-366) scale(1,1)"><rect fill="#C0C0C0" stroke="none" x="375" y="383" width="111.5654296875" height="75" opacity="0.2"/></g><g transform="translate(-142,-366) scale(1,1)"><rect fill="#ffffff" stroke="none" x="368" y="376" width="111.5654296875" height="75"/></g><g transform="translate(-142,-366) scale(1,1)"><path fill="none" stroke="#000000" d="M 368 376 L 479.5654296875 376 L 479.5654296875 451 L 368 451 L 368 376 Z Z" stroke-miterlimit="10"/></g><g transform="translate(-142,-366) scale(1,1)"><path fill="none" stroke="#000000" d="M 368 414 L 479.5654296875 414" stroke-miterlimit="10"/></g><g transform="translate(-142,-366) scale(1,1)"><g><path fill="none" stroke="none"/><text fill="#000000" stroke="none" font-family="Arial" font-size="13px" font-style="normal" font-weight="normal" text-decoration="none" x="380.418701171875" y="393.5">«enumeration»</text></g></g><g transform="translate(-142,-366) scale(1,1)"><g><path fill="none" stroke="none"/><text fill="#000000" stroke="none" font-family="Arial" font-size="13px" font-style="normal" font-weight="bold" text-decoration="none" x="376.819580078125" y="408.5">EnumAdmission</text></g></g><g transform="translate(-142,-366) scale(1,1)"><g><path fill="none" stroke="none"/><text fill="#000000" stroke="none" font-family="Arial" font-size="13px" font-style="normal" font-weight="normal" text-decoration="none" x="373" y="431.5">TC</text></g></g><g transform="translate(-142,-366) scale(1,1)"><g><path fill="none" stroke="none"/><text fill="#000000" stroke="none" font-family="Arial" font-size="13px" font-style="normal" font-weight="normal" text-decoration="none" x="373" y="446.5">BR</text></g></g><g transform="translate(-142,-366) scale(1,1)"><path fill="none" stroke="#000000" d="M 317 495 L 372 452" stroke-miterlimit="10"/></g><g transform="translate(-142,-366) scale(1,1)"><rect fill="#C0C0C0" stroke="none" x="447" y="655" width="117" height="57" opacity="0.2"/></g><g transform="translate(-142,-366) scale(1,1)"><rect fill="#ffffff" stroke="none" x="440" y="648" width="117" height="57"/></g><g transform="translate(-142,-366) scale(1,1)"><path fill="none" stroke="#000000" d="M 440 648 L 557 648 L 557 705 L 440 705 L 440 648 Z Z" stroke-miterlimit="10"/></g><g transform="translate(-142,-366) scale(1,1)"><path fill="none" stroke="#000000" d="M 440 673 L 557 673" stroke-miterlimit="10"/></g><g transform="translate(-142,-366) scale(1,1)"><path fill="none" stroke="#000000" d="M 440 696 L 557 696" stroke-miterlimit="10"/></g><g transform="translate(-142,-366) scale(1,1)"><g><path fill="none" stroke="none"/><text fill="#000000" stroke="none" font-family="Arial" font-size="13px" font-style="normal" font-weight="bold" text-decoration="none" x="477.911376953125" y="667.5">Cursus</text></g></g><g transform="translate(-142,-366) scale(1,1)"><g><path fill="none" stroke="none"/><text fill="#000000" stroke="none" font-family="Arial" font-size="13px" font-style="normal" font-weight="normal" text-decoration="none" x="445" y="690.5">+identifiant: String</text></g></g><g transform="translate(-142,-366) scale(1,1)"><path fill="none" stroke="#000000" d="M 329 596 L 439 648" stroke-miterlimit="10"/></g><g transform="translate(-142,-366) scale(1,1)"><g><path fill="none" stroke="none"/><text fill="#000000" stroke="none" font-family="Arial" font-size="13px" font-style="normal" font-weight="normal" text-decoration="none" x="339.641357421875" y="622.5">1</text></g></g><g transform="translate(-142,-366) scale(1,1)"><g><path fill="none" stroke="none"/><text fill="#000000" stroke="none" font-family="Arial" font-size="13px" font-style="normal" font-weight="normal" text-decoration="none" x="410.970458984375" y="656.5">*</text></g></g><g transform="translate(-142,-366) scale(1,1)"><rect fill="#C0C0C0" stroke="none" x="735" y="495" width="126.40625" height="177" opacity="0.2"/></g><g transform="translate(-142,-366) scale(1,1)"><rect fill="#ffffff" stroke="none" x="728" y="488" width="126.40625" height="177"/></g><g transform="translate(-142,-366) scale(1,1)"><path fill="none" stroke="#000000" d="M 728 488 L 854.40625 488 L 854.40625 665 L 728 665 L 728 488 Z Z" stroke-miterlimit="10"/></g><g transform="translate(-142,-366) scale(1,1)"><path fill="none" stroke="#000000" d="M 728 513 L 854.40625 513" stroke-miterlimit="10"/></g><g transform="translate(-142,-366) scale(1,1)"><path fill="none" stroke="#000000" d="M 728 656 L 854.40625 656" stroke-miterlimit="10"/></g><g transform="translate(-142,-366) scale(1,1)"><g><path fill="none" stroke="none"/><text fill="#000000" stroke="none" font-family="Arial" font-size="13px" font-style="normal" font-weight="bold" text-decoration="none" x="738.0986328125" y="507.5">ElementFormation</text></g></g><g transform="translate(-142,-366) scale(1,1)"><g><path fill="none" stroke="none"/><text fill="#000000" stroke="none" font-family="Arial" font-size="13px" font-style="normal" font-weight="normal" text-decoration="none" x="733" y="530.5">+sem_seq: Integer</text></g></g><g transform="translate(-142,-366) scale(1,1)"><g><path fill="none" stroke="none"/><text fill="#000000" stroke="none" font-family="Arial" font-size="13px" font-style="normal" font-weight="normal" text-decoration="none" x="733" y="545.5">+sem_label: String</text></g></g><g transform="translate(-142,-366) scale(1,1)"><g><path fill="none" stroke="none"/><text fill="#000000" stroke="none" font-family="Arial" font-size="13px" font-style="normal" font-weight="normal" text-decoration="none" x="733" y="560.5">+sigle: String</text></g></g><g transform="translate(-142,-366) scale(1,1)"><g><path fill="none" stroke="none"/><text fill="#000000" stroke="none" font-family="Arial" font-size="13px" font-style="normal" font-weight="normal" text-decoration="none" x="733" y="575.5">+categorie: String</text></g></g><g transform="translate(-142,-366) scale(1,1)"><g><path fill="none" stroke="none"/><text fill="#000000" stroke="none" font-family="Arial" font-size="13px" font-style="normal" font-weight="normal" text-decoration="none" x="733" y="590.5">+affectation: String</text></g></g><g transform="translate(-142,-366) scale(1,1)"><g><path fill="none" stroke="none"/><text fill="#000000" stroke="none" font-family="Arial" font-size="13px" font-style="normal" font-weight="normal" text-decoration="none" x="733" y="605.5">+utt: boolean</text></g></g><g transform="translate(-142,-366) scale(1,1)"><g><path fill="none" stroke="none"/><text fill="#000000" stroke="none" font-family="Arial" font-size="13px" font-style="normal" font-weight="normal" text-decoration="none" x="733" y="620.5">+profil: boolean</text></g></g><g transform="translate(-142,-366) scale(1,1)"><g><path fill="none" stroke="none"/><text fill="#000000" stroke="none" font-family="Arial" font-size="13px" font-style="normal" font-weight="normal" text-decoration="none" x="733" y="635.5">+credit: int</text></g></g><g transform="translate(-142,-366) scale(1,1)"><g><path fill="none" stroke="none"/><text fill="#000000" stroke="none" font-family="Arial" font-size="13px" font-style="normal" font-weight="normal" text-decoration="none" x="733" y="650.5">+resultat: EnumRsltt</text></g></g><g transform="translate(-142,-366) scale(1,1)"><path fill="none" stroke="#000000" d="M 558 656 L 727 598" stroke-miterlimit="10"/></g><g transform="translate(-142,-366) scale(1,1)"><g><path fill="none" stroke="none"/><text fill="#000000" stroke="none" font-family="Arial" font-size="13px" font-style="normal" font-weight="normal" text-decoration="none" x="591.5" y="603.5">+EtapeFormation</text></g></g><g transform="translate(-142,-366) scale(1,1)"><g><path fill="none" stroke="none"/><text fill="#000000" stroke="none" font-family="Arial" font-size="13px" font-style="normal" font-weight="normal" text-decoration="none" x="706.970458984375" y="622.5">*</text></g></g><g transform="translate(-142,-366) scale(1,1)"><rect fill="#C0C0C0" stroke="none" x="367" y="823" width="117" height="57" opacity="0.2"/></g><g transform="translate(-142,-366) scale(1,1)"><rect fill="#ffffff" stroke="none" x="360" y="816" width="117" height="57"/></g><g transform="translate(-142,-366) scale(1,1)"><path fill="none" stroke="#000000" d="M 360 816 L 477 816 L 477 873 L 360 873 L 360 816 Z Z" stroke-miterlimit="10"/></g><g transform="translate(-142,-366) scale(1,1)"><path fill="none" stroke="#000000" d="M 360 841 L 477 841" stroke-miterlimit="10"/></g><g transform="translate(-142,-366) scale(1,1)"><path fill="none" stroke="#000000" d="M 360 864 L 477 864" stroke-miterlimit="10"/></g><g transform="translate(-142,-366) scale(1,1)"><g><path fill="none" stroke="none"/><text fill="#000000" stroke="none" font-family="Arial" font-size="13px" font-style="normal" font-weight="bold" text-decoration="none" x="387.06640625" y="835.5">Reglement</text></g></g><g transform="translate(-142,-366) scale(1,1)"><g><path fill="none" stroke="none"/><text fill="#000000" stroke="none" font-family="Arial" font-size="13px" font-style="normal" font-weight="normal" text-decoration="none" x="365" y="858.5">+identifiant: String</text></g></g></g></svg>